<svg viewBox="0 0 821 108" fill="none" xmlns="http://www.w3.org/2000/svg"><path d="M4.07 103.963h105.213V4.037H4.071v99.926zm108.714 3.472H.57V.565h112.214v106.87zm85.739-59.496h-23.979V34.69c0-3.852-.256-6.256-.769-7.211-.512-.955-1.643-1.433-3.388-1.433-1.975 0-3.229.581-3.76 1.742-.531 1.161-.797 3.672-.797 7.532v35.404c0 3.704.266 6.12.797 7.25s1.728 1.695 3.588 1.695c1.785 0 2.953-.566 3.503-1.698.551-1.133.826-3.792.826-7.977v-9.58h23.979v2.97c0 7.89-.675 13.485-2.022 16.784-1.348 3.301-4.328 6.192-8.942 8.676-4.613 2.483-10.3 3.724-17.059 3.724-7.025 0-12.815-1.052-17.371-3.154-4.557-2.102-7.575-5.014-9.056-8.733-1.482-3.72-2.222-9.314-2.222-16.784V41.63c0-5.492.228-9.611.684-12.358.455-2.746 1.813-5.39 4.072-7.933 2.258-2.542 5.391-4.543 9.398-6.003 4.006-1.459 8.609-2.189 13.812-2.189 7.063 0 12.891 1.129 17.486 3.386 4.594 2.256 7.612 5.07 9.056 8.44 1.442 3.368 2.164 8.61 2.164 15.725v7.24zm8.601-33.238h24.036l.114 32.202c4.518-.094 6.854-2.166 7.006-6.214l.455-14.877c.151-5.492 1.443-9.196 3.873-11.11h22.156c-2.164 1.851-3.227 5.68-3.189 11.486l.114 13.088c.075 7.91-5.317 12.414-16.176 13.512 10.859 1.099 16.251 5.666 16.176 13.7l-.114 12.146c-.038 5.775 1.025 9.887 3.189 12.335h-22.156c-2.582-1.914-3.873-5.618-3.873-11.11V64.981c0-1.884-.693-3.398-2.079-4.544-1.386-1.145-3.18-1.734-5.382-1.765l-.114 32.296h-24.036V14.701zM325.65 47.939h-23.978V34.69c0-3.852-.256-6.256-.769-7.211-.513-.955-1.643-1.433-3.389-1.433-1.975 0-3.228.581-3.759 1.742-.532 1.161-.798 3.672-.798 7.532v35.404c0 3.704.266 6.12.798 7.25.531 1.13 1.727 1.695 3.588 1.695 1.785 0 2.952-.566 3.503-1.698.55-1.133.826-3.792.826-7.977v-9.58h23.978v2.97c0 7.89-.674 13.485-2.021 16.784-1.349 3.301-4.329 6.192-8.942 8.676-4.614 2.483-10.301 3.724-17.059 3.724-7.025 0-12.815-1.052-17.372-3.154-4.556-2.102-7.575-5.014-9.056-8.733-1.481-3.72-2.221-9.314-2.221-16.784V41.63c0-5.492.228-9.611.683-12.358.456-2.746 1.813-5.39 4.073-7.933 2.259-2.542 5.391-4.543 9.397-6.003 4.006-1.459 8.61-2.189 13.812-2.189 7.063 0 12.891 1.129 17.486 3.386 4.594 2.256 7.613 5.07 9.057 8.44 1.442 3.368 2.163 8.61 2.163 15.725v7.24zm87.714 43.031h-24.035V29.954h-7.006v43.17c0 5.682-.886 9.763-2.659 12.242-1.772 2.48-4.461 4.033-8.065 4.66-3.605.629-9.353.942-17.245.942h-3.756V77.834c2.923 0 4.935-.298 6.037-.895 1.101-.595 1.652-2.636 1.652-6.12V14.7h55.077v76.27zm40.382-56.637c0-3.547-.238-5.814-.712-6.803-.475-.989-1.453-1.483-2.934-1.483-1.252 0-2.212.4-2.876 1.2-.665.8-.996 3.163-.996 7.086v35.591c0 4.426.218 7.157.655 8.192.436 1.036 1.452 1.554 3.047 1.554 1.632 0 2.677-.596 3.132-1.789.456-1.192.684-4.033.684-8.521V34.333zm23.978 25.046c0 7.658-.218 13.08-.654 16.266-.438 3.185-1.804 6.096-4.101 8.733-2.298 2.636-5.402 4.66-9.313 6.073-3.911 1.412-8.468 2.118-13.669 2.118-4.937 0-9.37-.667-13.3-2-3.93-1.334-7.091-3.335-9.483-6.003-2.392-2.668-3.816-5.57-4.272-8.71-.455-3.138-.684-8.63-.684-16.477V46.338c0-7.658.219-13.08.656-16.266.436-3.185 1.803-6.096 4.101-8.733 2.297-2.636 5.401-4.66 9.312-6.073 3.91-1.412 8.467-2.119 13.67-2.119 4.935 0 9.369.668 13.299 2.001 3.93 1.335 7.091 3.335 9.483 6.003 2.393 2.668 3.816 5.571 4.272 8.71.456 3.138.683 8.631.683 16.477v13.04zm82.928-44.631v76.22h-20.956l-.032-51.457-8.345 51.458h-14.863l-8.8-50.28-.028 50.28h-20.96V14.748h31.026c.921 4.583 1.869 9.984 2.846 16.204l3.406 19.388 5.512-35.592h31.194zm41.468 56.071V59.803c0-3.202-.391-5.148-1.168-5.838-.782-.69-2.991-1.083-6.638-1.177v25.046c3.039 0 5.1-.322 6.179-.965 1.083-.643 1.627-2.66 1.627-6.05zm24.033 2.307c0 5.68-.894 9.762-2.675 12.24-1.786 2.48-4.492 4.034-8.118 4.661-3.626.629-9.408.942-17.341.942h-27.737V14.701h46.986v13.23h-22.954V40.83h3.705c7.405 0 13.002.361 16.802 1.083 3.795.722 6.633 2.315 8.515 4.778 1.876 2.464 2.817 6.332 2.817 11.605v14.83zm37.229-9.369c-1.215-8.633-2.431-19.304-3.652-32.014-2.442 14.596-3.98 25.268-4.603 32.014h8.255zm12.706-49.009l13.715 76.22h-24.508l-1.284-13.7h-8.578l-1.443 13.7h-24.788l12.23-76.22h34.656zm41.764 13.041v19.396a38.99 38.99 0 001.766.047c2.204 0 3.731-.447 4.587-1.341.856-.895 1.279-2.754 1.279-5.58v-6.26c0-2.605-.491-4.3-1.48-5.085-.988-.784-3.039-1.177-6.152-1.177zm-23.974-13.041h24.149c6.527 0 11.548.424 15.063 1.271 3.514.848 6.152 2.072 7.917 3.672 1.765 1.601 2.96 3.54 3.589 5.815.629 2.276.941 5.798.941 10.569v6.638c0 4.865-.608 8.412-1.824 10.64-1.215 2.229-3.446 3.939-6.691 5.131-3.25 1.194-7.489 1.79-12.732 1.79h-6.438v30.695h-23.974V14.748zm98.19 60.214V29.766h-7.119v.565c0 14.595-1.897 29.472-5.697 44.63h12.816zM821 104.104h-16.569V90.969H765.7v13.135h-16.522V75.056h4.9c2.584-6.245 4.698-14.46 6.353-24.645 1.649-10.185 2.473-21.32 2.473-33.403V14.7h53.202v60.26H821v29.143z" fill="#E31E24"/><path d="M60.119 40.141l.469-.084c3.84-.683 6.855-1.83 9.083-3.411h-5.888a14.84 14.84 0 01-2.913 1.303l-.751.25v-6.15H55.2v7.027l-.523.042a46.084 46.084 0 01-3.746.144c-4.828 0-8.959-.835-12.373-2.534-3.287-1.62-5.163-3.632-5.163-6.107 0-2.418 1.967-4.38 5.364-5.97 3.45-1.617 7.514-2.416 12.172-2.416 5.583 0 10.014.91 13.23 2.787h5.607c-1.65-1.251-3.907-2.262-6.802-3.013-3.428-.895-7.396-1.346-11.908-1.346-6.361 0-11.792 1.028-16.315 3.063-4.571 2.058-6.586 4.387-6.586 6.895 0 2.618 1.974 5.006 6.402 7.084 4.39 2.06 9.839 3.103 16.372 3.103 1.274 0 2.497-.032 3.668-.094l.601-.032v26.556h4.919V40.14z" fill="#E31E24"/><path fill-rule="evenodd" clip-rule="evenodd" d="M14.521 83.853h33.926l-23.64-44.196-.444-.828h5.206l.16.3 25.947 48.508.443.828H13.95v-4.612h.57zm56.755-48.336H63.46l-.138.085c-.614.377-1.301.713-2.063 1.007v-5.688h-7.2v7.112c-.987.067-2.03.1-3.128.1-4.699 0-8.646-.813-11.862-2.414-3.176-1.565-4.533-3.288-4.533-5.098 0-1.714 1.39-3.395 4.712-4.95 3.266-1.531 7.155-2.307 11.683-2.307 5.56 0 9.8.922 12.778 2.705l.136.082h8.79l-.952-.96c-1.884-1.9-4.715-3.31-8.425-4.273-3.545-.925-7.614-1.384-12.2-1.384-6.482 0-12.083 1.047-16.787 3.165-4.655 2.095-7.255 4.703-7.255 7.922 0 3.296 2.512 5.971 7.054 8.104 4.585 2.15 10.211 3.211 16.86 3.211 1.078 0 2.122-.022 3.13-.066v26.496h7.199v-14.79l8.193 13.13c-2.76.526-5.301 1.31-7.625 2.356-4.654 2.094-7.254 4.704-7.254 7.923 0 3.296 2.511 5.97 7.055 8.103 4.584 2.15 10.211 3.212 16.86 3.212 9.729 0 16.698-1.763 20.73-5.44l1.075-.98h-9.275l-.138.085c-2.718 1.663-6.822 2.532-12.393 2.532-4.698 0-8.644-.814-11.862-2.414-3.175-1.565-4.533-3.29-4.533-5.098 0-1.715 1.391-3.395 4.712-4.95a23.018 23.018 0 014.95-1.642l3.084 4.941.167.268h7.984l-.58-.874-3.314-4.997c5.263.065 9.303.984 12.172 2.702l.136.081h8.788l-.951-.959c-1.884-1.9-4.713-3.312-8.424-4.274-3.545-.925-7.614-1.383-12.201-1.383-.69 0-1.37.011-2.04.035L67.824 52.74l15.4-11.732 1.327-1.01h-8.163l-.157.123-14.97 11.824V41.081c4.487-.857 7.974-2.37 10.402-4.585l1.075-.979h-1.461zm-16.599 3.601l.523-.043V32.05h4.919v6.149l.751-.25a14.78 14.78 0 002.913-1.302h5.888c-2.228 1.581-5.244 2.728-9.083 3.411l-.47.084v27.096H55.2V40.682l-.6.032a69.471 69.471 0 01-3.67.094c-6.532 0-11.98-1.044-16.371-3.103-4.427-2.078-6.402-4.466-6.402-7.084 0-2.508 2.015-4.837 6.586-6.895 4.523-2.035 9.954-3.063 16.315-3.063 4.512 0 8.48.451 11.908 1.346 2.895.75 5.152 1.762 6.802 3.013h-5.606c-3.218-1.877-7.648-2.787-13.231-2.787-4.658 0-8.721.799-12.172 2.416-3.397 1.59-5.364 3.552-5.364 5.97 0 2.475 1.876 4.487 5.163 6.107 3.414 1.699 7.545 2.534 12.373 2.534 1.321 0 2.57-.048 3.746-.144zm16.598-3.036h-.865c-.236.194-.482.382-.74.564h1.607v-.564zM3.501 103.963v.565h106.352V3.472H3.501v100.491zM112.784 108h.57V0H0v108h112.784zM108.713 4.6v98.8H4.641V4.601h104.072zm3.5-3.472v105.743H1.141V1.128h111.072z" fill="#E31E24"/><path d="M70.613 36.646c.23-.183.45-.371.662-.564h-.865c-.236.194-.482.382-.74.564h.943z" fill="#E31E24"/><path d="M71.275 36.082a13.53 13.53 0 01-.662.564h.663v-.564z" fill="#E31E24"/></svg>